<svg t="1585108814520" class="icon" viewBox="0 0 1024 1024" version="1.1" xmlns="http://www.w3.org/2000/svg" p-id="5317" width="128" height="128"><path d="M826.3802209 979.19440578H197.6197791C125.88892084 979.19440578 67.02843186 923.85181777 67.02843186 855.20984816V168.79015184c0-68.64196964 58.60308158-123.81295271 130.59134724-123.8129527h111.54320064v51.48147721h-111.54320064c-43.58765071 0-79.10987001 32.43333065-79.10986999 72.33147549v686.41969632c0 39.89814483 35.43641682 72.33147549 79.10986999 72.33147549h628.84624427c43.58765071 0 79.10987001-32.43333065 79.10987-72.33147549V168.79015184c0-39.89814483-35.43641682-72.33147549-79.10987-72.33147549h-103.992584v-51.48147721h103.90678153C898.11107916 44.80559422 956.97156814 100.14818223 956.97156814 168.79015184v686.41969632c0 68.64196964-58.86048895 123.98455764-130.59134724 123.98455762z" fill="#000000" p-id="5318"></path><path d="M598.91789404 96.28707142H437.35185803a25.7407386 25.7407386 0 1 1 0-51.4814772h161.56603601a25.7407386 25.7407386 0 0 1 0 51.4814772zM769.40738611 383.29630697H276.4722417a25.7407386 25.7407386 0 0 1 0-51.48147725H769.40738611a25.7407386 25.7407386 0 0 1 0 51.48147725zM769.40738611 552.32715715H276.4722417a25.7407386 25.7407386 0 1 1 0-51.48147721H769.40738611a25.7407386 25.7407386 0 1 1 0 51.48147721zM769.40738611 721.27220491H276.4722417a25.7407386 25.7407386 0 0 1 0-51.48147722H769.40738611a25.7407386 25.7407386 0 0 1 0 51.48147722z" fill="#ffffff" p-id="5319" data-spm-anchor-id="a313x.7781069.0.i17" class="selected"></path></svg>